<svg id="eIhEN8c51GJ1" xmlns="http://www.w3.org/2000/svg" xmlns:xlink="http://www.w3.org/1999/xlink" viewBox="0 0 300 300" shape-rendering="geometricPrecision" text-rendering="geometricPrecision" project-id="f6fc8a1ec2f941499dec1d8b1bdb6c7f" export-id="7e632521794d486f99282340741611cf" cached="false"><path d="" fill="none" stroke="#3f5787" stroke-width="0.6"/><path d="M167.783292,95.119934c-43.010753-8.271299-57.899091-157.981804-43.010753-8.271299q14.888338,149.710505,84.367246,30.603804L104.921423,135.649296" transform="translate(0 0.000001)" fill="none" stroke="#3f5787" stroke-width="0.6"/><path d="M60.25641,183.622829c168.734492,37.220843,179.487181,195.202646,168.734492,37.220843Q218.238213,62.861869,70.181968,272.125724" transform="translate(.000002 0.000001)" fill="none" stroke="#3f5787" stroke-width="0.6"/><polygon points="0,-48.17277 14.157622,-19.486295 45.815027,-14.886205 22.907513,7.443102 28.315244,38.97259 0,24.086385 -28.315244,38.97259 -22.907513,7.443102 -45.815027,-14.886205 -14.157622,-19.486295 0,-48.17277" transform="matrix(-1.033125 0.295179-.277103-.96986 170.276761 114.54929)" fill="#d2dbed" stroke-width="0"/><g transform="matrix(.718175 0 0 0.632247-19.838303 34.314806)"><path d="M62.07,79.44c23.15,9.94,52.24,22.87,50.93,64.2s-30.45,73-9.08,116.41s38.15,74.86,115.2,75s131.09-29.93,136.13-73.42c1.65-14.25-19.27,24.69-42.42,19.66s-83.52-56.69-112.23-84.91-66.93-39.21-81.15-76.11-34.45-49.55-51.12-49.87c-5.82-.22-12.14,7.51-6.26,9.04Z" fill="#ea7e1a"/><path d="M121.64,139.27c24.82,56.91,18.31,87.16,60.6,124.9s109.17,61.9,158.37,15.3" fill="none" stroke="#c7650c" stroke-width="7" stroke-linecap="round" stroke-miterlimit="10"/><path d="M147.85,215.56c1.26,16.26,12.87,79.59,21.88,100.15" fill="none" stroke="#c7650c" stroke-width="7" stroke-linecap="round" stroke-miterlimit="10"/><path d="M153.07,255.12c-12.25,43.12-12.51,21.56-12.25,43.12" fill="none" stroke="#c7650c" stroke-width="7" stroke-linecap="round" stroke-miterlimit="10"/><path d="M195.12,274.49c13,2,59.22-1.59,73.08-6.68" fill="none" stroke="#c7650c" stroke-width="7" stroke-linecap="round" stroke-miterlimit="10"/><path d="M217.4,288.76c4.85,7,14.26,27,40.58,34.07" fill="none" stroke="#c7650c" stroke-width="7" stroke-linecap="round" stroke-miterlimit="10"/><path d="M140.57,193.82c6.74,5.82,30.89,22,69.73,28.37" fill="none" stroke="#c7650c" stroke-width="7" stroke-linecap="round" stroke-miterlimit="10"/></g></svg>
